HIERARCHY
ROOT joint_0
{
	OFFSET 0.000000 0.000000 0.000000
	CHANNELS 6 Xposition Yposition Zposition Zrotation Yrotation Xrotation 
	JOINT joint_1
	{
		OFFSET 13.542969 -4.074463 123.986084
		CHANNELS 3 Zrotation Yrotation Xrotation
		JOINT joint_2
		{
			OFFSET -0.108154 -3.018066 113.860962
			CHANNELS 3 Zrotation Yrotation Xrotation
			JOINT joint_3
			{
				OFFSET -1.139648 -3.876465 113.702026
				CHANNELS 3 Zrotation Yrotation Xrotation
				JOINT joint_4
				{
					OFFSET 13.593506 -8.582153 160.876953
					CHANNELS 3 Zrotation Yrotation Xrotation
					JOINT joint_5
					{
						OFFSET 26.480957 -11.565674 94.427979
						CHANNELS 3 Zrotation Yrotation Xrotation
						End Site
						{
							OFFSET 0.000000 0.000000 0.000000
						}
					}
				}
				JOINT joint_6
				{
					OFFSET 3.003662 -39.658691 88.713989
					CHANNELS 3 Zrotation Yrotation Xrotation
					JOINT joint_7
					{
						OFFSET -25.253906 -162.506348 -28.477051
						CHANNELS 3 Zrotation Yrotation Xrotation
						JOINT joint_8
						{
							OFFSET 23.083252 -8.502686 -295.281982
							CHANNELS 3 Zrotation Yrotation Xrotation
							JOINT joint_9
							{
								OFFSET 20.205566 -32.167908 -263.458008
								CHANNELS 3 Zrotation Yrotation Xrotation
								End Site
								{
									OFFSET 0.000000 0.000000 0.000000
								}
							}
						}
					}
				}
				JOINT joint_10
				{
					OFFSET 12.313232 30.012939 91.642944
					CHANNELS 3 Zrotation Yrotation Xrotation
					JOINT joint_11
					{
						OFFSET 31.960205 162.667969 -19.398926
						CHANNELS 3 Zrotation Yrotation Xrotation
						JOINT joint_12
						{
							OFFSET 51.325195 40.249023 -289.038086
							CHANNELS 3 Zrotation Yrotation Xrotation
							JOINT joint_13
							{
								OFFSET 70.170898 60.433594 -249.556030
								CHANNELS 3 Zrotation Yrotation Xrotation
								End Site
								{
									OFFSET 0.000000 0.000000 0.000000
								}
							}
						}
					}
				}
			}
		}
	}
	JOINT joint_14
	{
		OFFSET -15.093262 -91.803833 -113.326904
		CHANNELS 3 Zrotation Yrotation Xrotation
		JOINT joint_15
		{
			OFFSET 2.288818 -12.306763 -494.206055
			CHANNELS 3 Zrotation Yrotation Xrotation
			JOINT joint_16
			{
				OFFSET -54.691650 0.383423 -424.447006
				CHANNELS 3 Zrotation Yrotation Xrotation
				JOINT joint_17
				{
					OFFSET 202.154297 -21.791382 -80.181999
					CHANNELS 3 Zrotation Yrotation Xrotation
					End Site
					{
						OFFSET 0.000000 0.000000 0.000000
					}
				}
			}
		}
	}
	JOINT joint_18
	{
		OFFSET 10.704102 91.957275 -113.713013
		CHANNELS 3 Zrotation Yrotation Xrotation
		JOINT joint_19
		{
			OFFSET 0.427490 1.374878 -494.359924
			CHANNELS 3 Zrotation Yrotation Xrotation
			JOINT joint_20
			{
				OFFSET -53.071777 2.769531 -424.643028
				CHANNELS 3 Zrotation Yrotation Xrotation
				JOINT joint_21
				{
					OFFSET 200.264648 -28.253052 -82.862999
					CHANNELS 3 Zrotation Yrotation Xrotation
					End Site
					{
						OFFSET 0.000000 0.000000 0.000000
					}
				}
			}
		}
	}
}
MOTION
Frames: 7
Frame Time: 0.016667
-3112.163086 1457.811768 1114.954956 30.128841 -2.293568 2.172289 -0.074435 2.671631 -1.773523 -0.220250 -0.447609 0.380635 -0.207946 0.504946 -0.246679 -0.127043 0.906352 0.770558 0.000000 0.000000 0.000000 1.566515 -1.026212 0.095647 -1.659968 0.995526 -9.927833 -0.553200 2.230206 -0.291356 0.000000 0.000000 0.000000 1.297329 3.700940 1.248000 1.274989 3.282723 4.001865 3.852724 5.775327 8.348111 0.000000 0.000000 0.000000 -0.494862 -19.773261 -0.294372 3.248042 18.909527 3.333477 7.780198 0.744659 2.907565 0.000000 0.000000 0.000000 -11.092624 -2.798486 1.900337 -10.921350 31.515546 -11.614475 -10.739496 -3.542207 -4.466488 0.000000 0.000000 0.000000 
-3100.036133 1460.674683 1109.734009 30.003710 -3.151441 1.811050 -0.085082 2.537354 -1.359263 -0.236322 -0.410283 0.313694 -0.228635 0.501036 -0.196703 -0.133939 1.047647 0.847021 0.000000 0.000000 0.000000 1.302695 -1.264235 0.556248 -1.725425 0.919144 -10.859022 -0.442760 1.866187 -0.036671 0.000000 0.000000 0.000000 1.501973 3.715236 0.842177 1.399071 2.920056 4.985768 3.655536 5.647221 7.661658 0.000000 0.000000 0.000000 -0.672436 -19.194896 0.029795 2.682433 20.779875 3.888900 7.995753 0.519528 2.948340 0.000000 0.000000 0.000000 -11.956007 -2.579199 2.649089 -11.802893 33.910886 -13.091200 -12.222482 -3.242105 -4.896544 0.000000 0.000000 0.000000 
-3088.157715 1463.152954 1105.137939 29.941761 -4.002217 1.326471 -0.103983 2.414802 -0.828132 -0.261293 -0.373478 0.230952 -0.257733 0.515083 -0.129590 -0.164961 1.087430 0.973955 0.000000 0.000000 0.000000 0.900887 -1.594858 1.315351 -1.835271 0.833554 -12.041067 -0.341685 1.522247 0.207025 0.000000 0.000000 0.000000 1.750939 3.600943 0.208423 1.563044 2.360248 6.061574 3.477983 5.608634 7.023632 0.000000 0.000000 0.000000 -0.773133 -18.450441 0.344991 2.171750 22.496535 4.658327 8.341227 0.632047 3.072200 0.000000 0.000000 0.000000 -12.882867 -2.369880 3.465486 -12.744757 36.147378 -14.498455 -14.007053 -2.580495 -5.368265 0.000000 0.000000 0.000000 
-3077.010498 1465.982910 1101.791016 29.835602 -4.757303 0.873323 -0.126701 2.301330 -0.290879 -0.286546 -0.346743 0.130751 -0.287059 0.516440 -0.050855 -0.197352 1.139103 1.111391 0.000000 0.000000 0.000000 0.567504 -1.878872 1.880945 -1.920359 0.708288 -12.814022 -0.295526 1.342601 0.214311 0.000000 0.000000 0.000000 1.943881 3.492458 -0.239169 1.645221 1.994841 6.522340 3.334206 5.471336 6.698092 0.000000 0.000000 0.000000 -0.811440 -17.711592 0.651844 1.742355 23.991443 5.290527 8.685579 0.687565 3.188778 0.000000 0.000000 0.000000 -13.674983 -2.223079 4.140593 -13.553522 38.197532 -15.679862 -15.767551 -1.683175 -5.788880 0.000000 0.000000 0.000000 
-3066.781738 1469.571411 1100.027954 29.583285 -5.350888 0.489541 -0.138543 2.154842 0.267961 -0.295778 -0.328600 0.002858 -0.299738 0.505485 0.045698 -0.225661 1.255355 1.259516 0.000000 0.000000 0.000000 0.441040 -2.054549 2.030988 -1.951016 0.540922 -12.886614 -0.336295 1.418739 -0.217589 0.000000 0.000000 0.000000 2.016119 3.474949 -0.288265 1.589418 2.047955 5.940025 3.251109 5.111223 6.964248 0.000000 0.000000 0.000000 -0.773224 -17.110391 0.975319 1.431973 25.322006 5.675753 9.016432 0.427778 3.266547 0.000000 0.000000 0.000000 -14.244014 -2.188561 4.608843 -14.143533 40.083250 -16.545929 -17.329873 -0.582724 -6.106682 0.000000 0.000000 0.000000 
-3057.284180 1473.512695 1099.515015 29.264142 -5.836284 0.142407 -0.148120 1.993370 0.830099 -0.298181 -0.317646 -0.138198 -0.304192 0.498810 0.151988 -0.258852 1.385975 1.431548 0.000000 0.000000 0.000000 0.416568 -2.176380 1.989717 -1.952691 0.349065 -12.545928 -0.433956 1.642478 -0.917895 0.000000 0.000000 0.000000 2.005741 3.468490 -0.144971 1.450328 2.293774 4.743406 3.201396 4.653443 7.564829 0.000000 0.000000 0.000000 -0.657478 -16.548540 1.288617 1.217839 26.462110 5.955809 9.345045 0.041389 3.331032 0.000000 0.000000 0.000000 -14.681514 -2.262289 4.953141 -14.605236 41.848379 -17.178437 -18.809159 0.671223 -6.370659 0.000000 0.000000 0.000000 
-3048.437988 1477.324707 1099.875000 29.018186 -6.289531 -0.118793 -0.176599 1.873625 1.230995 -0.316816 -0.303396 -0.245925 -0.324311 0.486626 0.229081 -0.297582 1.498253 1.616908 0.000000 0.000000 0.000000 0.370953 -2.274142 1.935953 -1.928676 0.144663 -11.989095 -0.535720 1.869899 -1.570230 0.000000 0.000000 0.000000 1.958700 3.368126 0.010777 1.304368 2.467949 3.486765 3.128167 4.263735 7.973682 0.000000 0.000000 0.000000 -0.482132 -15.879443 1.517777 1.053932 27.243906 6.163384 9.566703 -0.265570 3.368819 0.000000 0.000000 0.000000 -15.062691 -2.437750 5.195599 -15.014326 43.521761 -17.672090 -20.257932 1.890962 -6.631282 0.000000 0.000000 0.000000 
